<?xml version="1.0" encoding="UTF-8"?><svg xmlns="http://www.w3.org/2000/svg" xmlns:xlink="http://www.w3.org/1999/xlink" version="1.1" id="Layer_1" x="0px" y="0px" viewBox="0 0 48 48" xml:space="preserve"><path d="M15.248 33.541c-.541.314-8.168 5.157-8.208 5.517l-.04.36 1.419 3.541h31.16s1.498-4.814 1.418-6.021C40.959 36.374 36 33 36 33s3.922-3.876 3.983-12.359a31.05 31.05 0 0 0-.078-2.391C39.231 8.705 33.13 5.254 26.656 5.013c-6.473-.239-10.149 2.8-10.149 2.8s-4.105 1.36-4.525 4.681c0 0-3.196.622-1.483 7.105C9.293 20.596 9 22 9 23c0 1.275.402 2.765 1.235 3.656 1.699 1.819 3.079 1.389 3.079 1.389s.555 3.26 1.934 5.496z" fill="#FFE0B2"/><path d="M36.817 36.923c-.172-1.31-.859-1.923-2.163-1.923h-.061l-.06.007c-.43.052-1.023.315-2.652 1.462l-1.007.732a1.974 1.974 0 0 0-.868-.201c-.501 0-.948.201-1.299.508l-1.006-.527-1.685-.882c-.86-.423-1.774-.659-2.532-.659-.522 0-.945.112-1.257.333-.502.354-.707.975-.606 1.844.05.438.087.859.12 1.257.177 2.077.306 3.577 2.307 3.707.091.006.187.01.282.01 1.131 0 2.353-.445 3.632-1.323l.921-.632c.323.223.704.364 1.123.364.469 0 .89-.176 1.23-.448l1.438.273c.572.111 1.103.17 1.579.174l.38.003c.503 0 1.033-.02 1.499-.253.608-.303.893-.998.866-2.123a12.362 12.362 0 0 0-.143-1.422l-.038-.281z" fill="#F44336"/><path d="M21.742 38.875c-.034-.398-.07-.819-.12-1.257-.067-.576.013-1.033.212-1.385-4.969-.06-6.586-2.692-6.586-2.692s-.277 1.556 1.127 3.383c2.125 2.5 5.25 2.826 5.25 2.826h.201a33.639 33.639 0 0 1-.084-.875z" fill="#FFF"/><path d="M22.945 42.958l-.696-1.436c-.135-.278-.239-.624-.319-1.057l-.123-.661-.659-.136c-.89-.184-3.137-.819-4.743-2.707-.49-.637-.833-1.307-1.021-1.992l-.357-1.307-1.144.727c-1.984 1.261-5.327 3.437-6.404 4.259l-.604.461 1.542 3.848h14.528z" fill="#546E7A"/><path d="M12.233 42.958h10.713l-.696-1.436c-.135-.278-.239-.624-.319-1.057l-.123-.661-.659-.136c-.89-.184-3.137-.819-4.743-2.707a6.74 6.74 0 0 1-.271-.385L11 40l1.233 2.958z" fill="#455A64"/><path d="M40.7 36.528c-.621-.623-2.398-1.91-3.133-2.435l-.695-.496a8.08 8.08 0 0 1-1.312 1.244l.692.746c.3.324.49.775.565 1.35l.039.277c.057.404.129.908.141 1.412.041 1.67-.643 2.012-.868 2.125-.22.11-.467.178-.78.215l.118 1.993h4.116l.213-.714c.491-1.648 1.098-3.925 1.19-4.917l.043-.467-.329-.333z" fill="#546E7A"/><path d="M39.583 42.958l.213-.714a65.2 65.2 0 0 0 .761-2.771l-3.661-1.958c.046.344.092.72.101 1.111.041 1.67-.643 2.012-.868 2.125-.22.11-.467.178-.78.215l.118 1.993h4.116z" fill="#455A64"/><path d="M10.316 19.775c.013-.015.043-.044.074-.072l.02-.018.021-.017c.532-.425 1.191-.668 1.809-.668.584.004.945.189 1.235.337 1.286.659 1.569 1.98 1.672 2.918l.003.017.009.053.007.052a31.664 31.664 0 0 0 1.45-.546 3.997 3.997 0 0 0-.06-.645 7.844 7.844 0 0 0-.355-1.441c-.381-1.081-.277-2.522.31-4.283l.082-.245c.146-.431.261-.772.328-1.126.047-.251.082-.56.079-.717a1.731 1.731 0 0 0-.173-.766l-.237-.473.258-.462c.853-1.528 4.164-6.512 10.943-6.512.217 0 .438.005.662.016l-.22-.03A17.7 17.7 0 0 0 25.941 5c-5.417 0-8.715 2.271-9.321 2.726l-.114.086-.134.05c-.605.228-3.656 1.501-4.301 4.153l-.105.432-.391.211a2.557 2.557 0 0 0-.95.916c-.745 1.187-.833 3.029-.263 5.473l.121.52-.365.39c-.04.043-.071.089-.108.133.112-.129.209-.23.306-.315z" fill="#616161"/><path fill="#263238" d="M28 41h6v2h-6z"/><path d="M14.153 22.364c-.103-.938-.36-1.741-1.111-2.125-.256-.131-.452-.237-.794-.239-.454-.003-1.119.228-1.593.861L10 18.879c.899-.504 1.734-.75 2.497-.753a3.119 3.119 0 0 1 1.464.339c.405.208.833.5 1.102.817-.204-1.428.091-2.913.5-4.137.169-.507.329-.985.397-1.347.113-.599.003-.744-.222-1.006-1.899.229-3.486.667-3.505.671l-.506-1.935c.089-.023 2.104-.573 4.384-.789l.706-.066.296.644c.029.049.08.099.128.155.276.322.744.869.758 1.887.003.242-.04.618-.097.917-.094.495-.253.928-.444 1.501-.408 1.224-.673 2.62-.315 3.635.222.627.337 1.188.397 1.588.055.37.218 1.349-.224 1.605-.443.256-2.694 1.02-2.694 1.02s-.366-.323-.469-1.261z" fill="#263238"/><path d="M16.561 12.223S19.885 4.7 28.544 5.176" fill="none" stroke="#263238" stroke-width="2" stroke-miterlimit="10"/><path d="M22 36.238c-5.104 0-6.752-2.697-6.752-2.697s-.277 1.556 1.127 3.383c2.125 2.5 5.25 2.826 5.25 2.826" fill="#FFF" stroke="#263238" stroke-width="2" stroke-miterlimit="10"/><path d="M31.128 40.419s1.573.566 3.125.581c.687.007 1.321.028 1.877-.25.729-.364.889-1.245.868-2.125-.015-.629-.123-1.258-.181-1.696C36.64 35.576 35.913 35 34.654 35c-.881 0-3.055 1.671-4.198 2.499" fill="none" stroke="#263238" stroke-width="2" stroke-miterlimit="10"/><path d="M29.018 37.672L26.016 36.1c-1.878-.923-4.714-1.242-4.395 1.518.32 2.76.048 4.81 2.427 4.965 2.576.168 4.971-2.139 4.971-2.139" fill="none" stroke="#263238" stroke-width="2" stroke-miterlimit="10"/><path d="M21.029 15.421s-.248.579-.62.579c-.231 0-.402-.36-.404-.799-.005-1.201.764-2.676 1.638-3.41A3.424 3.424 0 0 1 23.894 11c.432.002.877.034 1.32.182.493.165.786.568.786 1.443 0 0 0 .375-1.25.375-.836 0-1.75.125-2.232.54-.418.361-.974.763-1.489 1.881z" fill="#263238"/><path d="M26.377 21c-.506 0-1.055-.06-1.622-.182-.615-.132-.92-.69-.666-1.158l.183-.338c.094-.17.269-.322.478-.322.125 0 .206.021.25.032.751.176 2.022.243 2.375.218-.5-1.875-.446-3.25-.125-3.25s1.069 2.266 1.501 2.842c.379.504.322 1.084-.15 1.516-.466.426-1.267.642-2.224.642z" fill="#263238"/><path d="M36.407 21c-.169 0-.338-.008-.507-.023-.581-.051-.9-.477-.9-1.102 0 0 .124-.875.619-.875.418 0 .885.183 1.139.152C36.46 17.973 36.18 16 36.486 16c.307 0 .991 2.375 2.354 3.25.411.264.41.875-.215 1.25-.719.431-1.439.5-2.218.5z" fill="#263238"/><path d="M38.25 14.5c-.216-.797-1.138-1.454-2.125-1.75C34.875 12.375 34 13 34 13c0-.875.702-1.605.979-1.728.363-.161.617-.272 1.021-.272 2.125 0 2.896 1.332 3.625 2.625l-1.375.875z" fill="#263238"/><path d="M31.885 27c-.141 0-.278-.002-.411-.006h-.002c-.671 0-1.273-.248-1.715-.718-.821-.874-.893-2.099-.632-2.25.262-.151.488.501 1.5.845.037.013.674.125.875.125.17.004.337.006.5.004 1.34-.019 2.418-.251 2.831-.622.215-.193.151-.347.169-.382-.033.031.017-.3-1.286-1.483-1.308-1.186-1.713-2.727-1.713-4.015 0-1.498.195-2.498.374-2.498.344 0 .627 3.168 2.683 5.033 1.464 1.328 1.944 2.211 1.942 3.088-.002.876-.501 1.446-.831 1.742-1.023.92-2.82 1.137-4.284 1.137z" fill="#263238"/><path d="M31.375 30c-3.125-.125-4.678-2-4.678-2s3.485.327 5.803.25V30h-1.125z" fill="#263238"/><path d="M33.625 30v-1.75c.166-.056 1.788.057 3.625-.625-.454 2.12-3.518 2.37-3.625 2.375z" fill="#263238"/><path d="M29.125 33c-2.204 0-3.26-.637-4.097-3.195 0 0-.134-.171.189-.275.323-.104.379.093.379.093.354 1.081 2.131 1.355 4.154 1.376l.25.002c1 .001 3-.001 3-.001s-.375 1.993-2.5 1.993L29.125 33z" fill="#263238"/><path d="M29.013 37c-3.182 0-5.749-1.028-8.41-3.855-1.55-1.648-1.478-3.654-1.276-3.855s.52 1.244 1.674 2.47c2.445 2.599 5.801 3.429 8.656 3.216 3.843-.279 5.441-2.508 5.655-2.705l1.657 1.205c-.095.128-2.367 3.146-7.167 3.495-.265.019-.528.029-.789.029z" fill="#263238"/><path d="M13.386 29.043l-.07-.998-.134-.99c.003-.001.228-.052.568-.354a.69.69 0 0 1 .889-.004l.468.382c.327.266.349.77.04 1.056-.871.801-1.601.897-1.761.908z" fill="#263238"/><path d="M13 23l1.625.625c-.094-.355-.6-2.155-1.983-2.599-.386-.124-1.08.194-1.24.944 0 0-.029.207-.026.317 0 .048-.001.095.003.145C11.492 23.995 13 25 13 25v-2z" fill="#263238"/><ellipse cx="30.006" cy="39" rx="1.994" ry="2" fill="none" stroke="#263238" stroke-width="2" stroke-miterlimit="10"/><path d="M15.248 33.541c-.541.314-8.168 5.157-8.208 5.517l-.04.36 1.419 3.541h31.16s1.498-4.814 1.418-6.021C40.959 36.374 36 33 36 33s3.922-3.876 3.983-12.359a31.05 31.05 0 0 0-.078-2.391C39.231 8.705 33.13 5.254 26.656 5.013c-6.473-.239-10.149 2.8-10.149 2.8s-4.105 1.36-4.525 4.681c0 0-3.196.622-1.483 7.105C9.293 20.596 9 22 9 23c0 1.275.402 2.765 1.235 3.656 1.699 1.819 3.079 1.389 3.079 1.389s.555 3.26 1.934 5.496z" fill="none" stroke="#263238" stroke-width="2" stroke-linejoin="round" stroke-miterlimit="10"/><metadata><rdf:RDF xmlns:rdf="http://www.w3.org/1999/02/22-rdf-syntax-ns#" xmlns:rdfs="http://www.w3.org/2000/01/rdf-schema#" xmlns:dc="http://purl.org/dc/elements/1.1/"><rdf:Description about="https://iconscout.com/legal#licenses" dc:title="jenkins" dc:description="jenkins" dc:publisher="Iconscout" dc:date="2017-12-15" dc:format="image/svg+xml" dc:language="en"><dc:creator><rdf:Bag><rdf:li>Icons8</rdf:li></rdf:Bag></dc:creator></rdf:Description></rdf:RDF></metadata></svg>