<svg xmlns="http://www.w3.org/2000/svg" viewBox="0 0 64 64"><g data-name="language"><path fill="#61c3b6" d="M29,41V55a2,2,0,0,0,2,2h2a2,2,0,0,0,2-2V41Z"/><polygon fill="#fff" points="16 61 10 61 26 41 32 41 16 61"/><polygon fill="#fff" points="48 61 54 61 38 41 32 41 48 61"/><polygon fill="#e6e6e6" points="41 44 34.6 44 32 42 29.4 44 23 44 26 41 38 41 41 44"/><path fill="#61c3b6" d="M31,3h2a2,2,0,0,1,2,2V7a0,0,0,0,1,0,0H29a0,0,0,0,1,0,0V5A2,2,0,0,1,31,3Z"/><path fill="#fd9467" d="M12,37H52a0,0,0,0,1,0,0v2a2,2,0,0,1-2,2H14a2,2,0,0,1-2-2V37A0,0,0,0,1,12,37Z"/><path fill="#4e5b5f" d="M55,6H36V5a3,3,0,0,0-3-3H31a3,3,0,0,0-3,3V6H9A3,3,0,0,0,6,9V35a3,3,0,0,0,3,3h2v1a3,3,0,0,0,3,3h9.92L9.22,60.38a1,1,0,0,0-.12,1A1,1,0,0,0,10,62h6a1,1,0,0,0,.78-.38L28,47.6V55a3,3,0,0,0,3,3h2a3,3,0,0,0,3-3V47.6l11.22,14A1,1,0,0,0,48,62h6a1,1,0,0,0,.9-.57,1,1,0,0,0-.12-1L40.08,42H50a3,3,0,0,0,3-3V38h2a3,3,0,0,0,3-3V9A3,3,0,0,0,55,6ZM30,5a1,1,0,0,1,1-1h2a1,1,0,0,1,1,1V6H30ZM15.52,60H12.08l14.4-18h3.44ZM34,55a1,1,0,0,1-1,1H31a1,1,0,0,1-1-1V45.1l2-2.5,2,2.5Zm17.92,5H48.48L34.08,42h3.44ZM51,39a1,1,0,0,1-1,1H14a1,1,0,0,1-1-1V38H51Zm5-4a1,1,0,0,1-1,1H9a1,1,0,0,1-1-1V9A1,1,0,0,1,9,8H55a1,1,0,0,1,1,1Z"/><path fill="#61c3b6" d="M26.92,14.61a1,1,0,0,0-1.84,0l-6,14a1,1,0,0,0,1.84.78L23.23,24h5.54l2.31,5.39A1,1,0,0,0,32,30a1,1,0,0,0,.39-.08,1,1,0,0,0,.53-1.31ZM24.09,22,26,17.54,27.91,22Z"/><path fill="#fd9467" d="M44,20a1,1,0,0,0-1,1v0a4.92,4.92,0,0,0-3-1,5,5,0,0,0,0,10,4.92,4.92,0,0,0,3-1v0a1,1,0,0,0,2,0V21A1,1,0,0,0,44,20Zm-4,8a3,3,0,1,1,3-3A3,3,0,0,1,40,28Z"/></g></svg>