<svg xmlns="http://www.w3.org/2000/svg" viewBox="0 0 64 64"><path fill="#fff" d="M40,51H24V5a2,2,0,0,1,2-2H38a2,2,0,0,1,2,2Z"/><polygon fill="#7accbe" points="61 45 61 61 3 61 3 45 26 45 28 49 36 49 38 45 61 45"/><path fill="#61c3b6" d="M52.28,45A33.92,33.92,0,0,1,44,61H3V45H26l2,4h8l2-4Z"/><path fill="#ffa88a" d="M40,5V9H24V5a2,2,0,0,1,2-2H38A2,2,0,0,1,40,5Z"/><path fill="#fd9467" d="M36,5a7.85,7.85,0,0,1-1.08,4H24V5a2,2,0,0,1,2-2h9.75A8.24,8.24,0,0,1,36,5Z"/><path fill="#fff" d="M24,45H8V17a2,2,0,0,1,2-2H24Z"/><rect width="3" height="30" x="21" y="15" fill="#e6e6e6"/><path fill="#fff" d="M56,45H40V11H54a2,2,0,0,1,2,2Z"/><rect width="3" height="34" x="40" y="11" fill="#e6e6e6"/><path fill="#4e5b5f" d="M59,44H57V13a3,3,0,0,0-3-3H41V5a3,3,0,0,0-3-3H26a3,3,0,0,0-3,3v9H10a3,3,0,0,0-3,3V44H5a3,3,0,0,0-3,3V59a3,3,0,0,0,3,3H59a3,3,0,0,0,3-3V47A3,3,0,0,0,59,44ZM54,12a1,1,0,0,1,1,1V44H41V12ZM25,10H39V44a3,3,0,0,0-2.45,1.64l-.89,1.79a1,1,0,0,1-.9.55H29.24a1,1,0,0,1-.9-.55l-.89-1.79A3,3,0,0,0,25,44Zm1-6H38a1,1,0,0,1,1,1V8H25V5A1,1,0,0,1,26,4ZM9,17a1,1,0,0,1,1-1H23V44H9ZM60,59a1,1,0,0,1-1,1H5a1,1,0,0,1-1-1V47a1,1,0,0,1,1-1H24.76a1,1,0,0,1,.9.55l.89,1.79A3,3,0,0,0,29.24,50h5.52a3,3,0,0,0,2.69-1.66l.89-1.79a1,1,0,0,1,.9-.55H59a1,1,0,0,1,1,1Z"/><path fill="#fff" d="M35,54H29a1,1,0,0,0,0,2h6a1,1,0,0,0,0-2Z"/><path fill="#fd9467" d="M16 23a1 1 0 0 0-1 1V36a1 1 0 0 0 2 0V24A1 1 0 0 0 16 23zM48 37a1 1 0 0 0 1-1V20a1 1 0 0 0-2 0V36A1 1 0 0 0 48 37z"/></svg>