<svg xmlns="http://www.w3.org/2000/svg" id="Layer_1" viewBox="0 0 64 64"><path fill="#2c4355" d="M32.054 24.839l.993.122a6.33 6.33 0 0 1 .177-.912l-.967-.259a8.057 8.057 0 0 0-.203 1.049zM33.529 23.174c.124-.285.268-.561.429-.824l-.853-.523a7.625 7.625 0 0 0-.493.95l.917.397zM35.143 20.926l-.672-.74c-.265.24-.513.5-.74.772l.77.64c.196-.237.413-.463.642-.672zM36.677 19.893l-.437-.899a7.76 7.76 0 0 0-.927.532l.559.83c.254-.171.525-.327.805-.463zM42.76 32.506a7.76 7.76 0 0 0 .927-.532l-.559-.83a6.444 6.444 0 0 1-.805.463l.437.899zM38.59 33.196c.355.042.714.06 1.068.053l-.021-1a6.702 6.702 0 0 1-.927-.046l-.12.993zM40.721 33.151c.35-.056.701-.14 1.043-.249l-.301-.953a6.476 6.476 0 0 1-.901.214l.159.988zM37.54 32.991l.261-.965a6.69 6.69 0 0 1-.876-.306l-.395.919c.328.142.669.26 1.01.352zM33.001 25.887l-1 .021c.007.353.04.711.098 1.065l.987-.161a6.9 6.9 0 0 1-.085-.925zM35.346 30.75l-.64.77c.275.229.568.438.871.624l.523-.854a6.285 6.285 0 0 1-.754-.54zM33.276 29.938c.199.294.42.577.659.843l.742-.672a6.338 6.338 0 0 1-.571-.729l-.83.558zM33.303 27.714l-.955.299c.107.338.24.673.395.996l.901-.435a6.176 6.176 0 0 1-.341-.86zM55.962 25.05l.995-.106a7.522 7.522 0 0 0-.19-1.053l-.968.247c.076.299.131.605.163.912zM46.144 32.459l.448-.895a6.577 6.577 0 0 1-.799-.473l-.569.822c.293.204.603.387.92.546zM49.27 32.248l-.032 1c.276.009.556.003.838-.019l.225-.021-.101-.995-.201.02a6.855 6.855 0 0 1-.729.015zM52.821 31.34l.511.86c.306-.181.602-.387.879-.612l-.63-.778a6.224 6.224 0 0 1-.76.53zM55.998 25.979c-.01.305-.042.615-.098.921l.985.176a7.4 7.4 0 0 0 .112-1.066l-.999-.031zM55.338 21.04a7.523 7.523 0 0 0-.731-.782l-.68.732c.225.209.437.436.632.678l.779-.628zM54.26 30.177l.733.682c.241-.26.467-.54.671-.835l-.822-.569a6.47 6.47 0 0 1-.582.722zM55.316 28.656l.895.448c.159-.318.296-.651.409-.989l-.949-.316a6.494 6.494 0 0 1-.355.857zM48.172 33.133l.177-.983a6.579 6.579 0 0 1-.899-.229l-.314.949c.336.112.685.2 1.036.263zM55.504 23.258l.924-.383a7.438 7.438 0 0 0-.48-.957l-.86.511c.158.264.298.543.416.829zM53.775 19.586a7.498 7.498 0 0 0-.92-.546l-.448.895c.275.137.544.297.799.473l.569-.822zM51.36 33.017a7.525 7.525 0 0 0 1.017-.337l-.383-.924a6.258 6.258 0 0 1-.88.292l.246.969zM44.488 20.153a7.435 7.435 0 0 0-6.889-1.651l-.48.126.123.481a7.487 7.487 0 0 0 4.881 5.247l-.004.015.011.003a7.454 7.454 0 0 0 2.013 6.62l.357.365.357-.365a7.457 7.457 0 0 0 2.014-6.619l.011-.003-.004-.015a7.487 7.487 0 0 0 4.881-5.247l.123-.481-.48-.126a7.433 7.433 0 0 0-6.889 1.651l-.013-.013-.012.012zm.677 2.418c.145.257.263.527.371.801.035.088.073.174.104.265l.002.007c-.386.07-.769.103-1.145.105a6.649 6.649 0 0 1-1.139-.105l.002-.006c.031-.092.07-.179.105-.269.108-.273.226-.542.37-.798.023-.042.051-.081.075-.123a6.58 6.58 0 0 1 .589-.847c.222.267.414.552.588.846.026.042.054.081.078.124zm-6.808-3.215a6.396 6.396 0 0 1 5.452 1.524 7.98 7.98 0 0 0-.237.286c-.054.07-.105.142-.156.214a6.775 6.775 0 0 0-.282.417c-.026.042-.051.086-.076.129a7.123 7.123 0 0 0-.295.543l-.023.05c-.102.213-.194.43-.275.651v.001c-.028.076-.056.152-.081.23a6.484 6.484 0 0 1-4.027-4.045zM44.5 29.899A6.453 6.453 0 0 1 43 25.75c0-.387.035-.768.101-1.142.103.02.206.035.31.05.366.056.73.092 1.088.092s.722-.036 1.088-.092c.104-.015.208-.03.31-.05a6.457 6.457 0 0 1-1.397 5.291zm6.143-10.543a6.49 6.49 0 0 1-4.025 4.045 8.476 8.476 0 0 0-.079-.224l-.004-.01c-.08-.217-.17-.43-.27-.639l-.03-.064a7.323 7.323 0 0 0-.288-.529c-.028-.047-.054-.095-.083-.141a7.234 7.234 0 0 0-.275-.406c-.054-.075-.107-.151-.163-.224-.075-.097-.155-.19-.235-.284a6.4 6.4 0 0 1 5.452-1.524zM49.873 12.016a7.582 7.582 0 0 0-.8-.712l-.61.793c.244.187.477.394.693.617l.717-.698zM50.245 14.207l.884-.468a7.763 7.763 0 0 0-.567-.907l-.808.59a6.6 6.6 0 0 1 .491.785zM48.177 10.711a7.666 7.666 0 0 0-.967-.456l-.361.932c.286.111.567.244.839.396l.489-.872zM50.869 15.948l.981-.198a7.722 7.722 0 0 0-.288-1.032l-.942.338c.106.293.189.593.249.892zM50.977 17.796l.996.084a7.62 7.62 0 0 0 .015-1.069l-.999.057c.018.309.014.623-.012.928zM46.187 9.941a7.8 7.8 0 0 0-1.056-.165l-.084.996c.306.026.615.074.917.143l.223-.974zM39.346 13.287l-.793-.61a7.454 7.454 0 0 0-.59.893l.87.491c.153-.27.325-.53.513-.774zM38.023 16.704l-.996-.084a7.62 7.62 0 0 0-.015 1.069l.999-.057a6.526 6.526 0 0 1 .012-.928zM44.117 10.76l-.055-.998a7.111 7.111 0 0 0-1.063.138l.2.979c.304-.062.613-.101.918-.119zM38.438 14.899l-.934-.359a7.809 7.809 0 0 0-.313 1.022l.975.225a6.44 6.44 0 0 1 .272-.888zM40.673 11.995l-.591-.806a7.72 7.72 0 0 0-.817.69l.698.717c.221-.215.461-.418.71-.601zM42.307 11.129l-.34-.94a7.703 7.703 0 0 0-.977.432l.468.884c.271-.143.556-.27.849-.376z"/><path fill="#f15743" d="M26.681 52.25H12.319L9 49.484V31.75h1v17.266l2.681 2.234h13.638L29 49.016V31.75h1v17.734z"/><path fill="#f15743" d="M31 32.25H17.5v-1H30v-1H17.5v-1H31zM11.5 32.25H8v-3h3.5v1H9v1h2.5zM27 54.25H12v-3h15v3zm-14-1h13v-1H13v1zM16.5 45.25h-1.734L7 35.931V33.25h2.5v1H8v1.319l7.234 8.681H16.5zM24.234 45.25H22.5v-1h1.266L31 35.569V34.25h-1.5v-1H32v2.681z"/><path fill="#2c4355" d="M13.5 33.25h2v1h-2zM15 39.25h3v-3h-3v3zm1-2h1v1h-1v-1zM11 38.25h3v1h-3z"/><path fill="#2c4355" d="M11 29.25v8h3v-5h-1v4h-1v-6h5v4h-1v-3h-1v4h3v-6z"/><path fill="#f15743" d="M44.5 31.359l-.357-.365C42.761 29.583 42 27.721 42 25.75s.761-3.833 2.143-5.244l.357-.365.357.365C46.239 21.918 47 23.78 47 25.75s-.761 3.832-2.143 5.244l-.357.365zm0-9.758c-.971 1.166-1.5 2.62-1.5 4.149s.529 2.983 1.5 4.149c.971-1.167 1.5-2.621 1.5-4.149s-.529-2.982-1.5-4.149z"/><path fill="#f15743" d="M44.5 24.75a7.49 7.49 0 0 1-7.259-5.641l-.123-.481.48-.126c4.15-1.085 8.157 1.463 9.16 5.389l.123.481-.48.126a7.522 7.522 0 0 1-1.901.252zm-6.143-5.394c1.011 2.961 4.015 4.883 7.285 4.287-1.011-2.96-4.018-4.884-7.285-4.287z"/><path fill="#f15743" d="M44.5 24.75a7.522 7.522 0 0 1-1.901-.252l-.48-.126.123-.481c1.003-3.926 5.011-6.475 9.16-5.389l.48.126-.123.481A7.49 7.49 0 0 1 44.5 24.75zm-1.143-1.106c3.268.597 6.274-1.326 7.285-4.287-3.268-.597-6.274 1.326-7.285 4.287z"/><path fill="#2c4355" d="M16 19.25h-4.5c-1.379 0-2.5-1.121-2.5-2.5s1.121-2.5 2.5-2.5H16v5zm-4.5-4c-.827 0-1.5.673-1.5 1.5s.673 1.5 1.5 1.5H15v-3h-3.5z"/><path fill="#f15743" d="M28.618 19.25H17v-5h11.618l2 1H33v3h-2.382l-2 1zM18 18.25h10.382l2-1H32v-1h-1.618l-2-1H18v3z"/><path fill="#2c4355" d="M49.183 45.811a.502.502 0 0 1-.354-.146l-4.243-4.243a.5.5 0 0 1 .707-.707l4.243 4.243a.5.5 0 0 1-.353.853zM42.386 47.499a.502.502 0 0 1-.354-.146l-1.688-1.688a.5.5 0 0 1 .707-.707l1.688 1.688a.5.5 0 0 1-.353.853zM42.875 42.25h-6a.5.5 0 0 1 0-1h6a.5.5 0 0 1 0 1z"/><path fill="#2c4355" d="M54.25 54.25h-17.5a.752.752 0 0 1-.75-.75v-6.25c0-.413.337-.75.75-.75h17.5c.413 0 .75.337.75.75v6.25c0 .413-.337.75-.75.75zm-17.25-1h17V47.5H37v5.75z"/><path fill="#2c4355" d="M55 54.25H36V46.5h19v7.75zm-18-1h17V47.5H37v5.75z"/><path fill="#2c4355" d="M48.5 53.875a.5.5 0 0 1-.5-.5v-6a.5.5 0 0 1 1 0v6a.5.5 0 0 1-.5.5zM42.5 53.875a.5.5 0 0 1-.5-.5v-6a.5.5 0 0 1 1 0v6a.5.5 0 0 1-.5.5z"/><path fill="#2c4355" d="M48.229 47.5H37.27l11.647-11.647 5.48 5.48-6.168 6.167zm-8.545-1h8.132l5.168-5.167-4.066-4.066-9.234 9.233z"/><path fill="#2c4355" d="M36.5 48.25a.5.5 0 0 1-.5-.5v-12.5h7.75v7.184l-4.92 4.92a.5.5 0 0 1-.707-.707l4.627-4.627v-5.77H37v11.5a.5.5 0 0 1-.5.5z"/><g><path fill="#f15743" d="M41 51.75h-3v-3h3v3zm-2-1h1v-1h-1v1z"/></g><g><path fill="#2c4355" d="M18 20.25h-3v-7h3v7zm-2-1h1v-5h-1v5z"/></g><g><path fill="#2c4355" d="M23 46.25h-7v-3h7v3zm-6-1h5v-1h-5v1z"/></g></svg>