<svg xmlns="http://www.w3.org/2000/svg" width="32" height="32" viewBox="0 0 32 32"><g transform="matrix(1 0 0 .99996 5050.826 949.418)"><path fill="#586597" d="m -5049.5762,-1962.8145 c -0.6838,0 -1.25,0.5662 -1.25,1.25 v 11.5 c 0,0.6839 0.5662,1.25 1.25,1.25 h 6.5 v 1.5 h -4 a 0.50005,0.50005 0 0 0 -0.4804,0.3614 l -1,3.5 a 0.50005,0.50005 0 0 0 0.4804,0.6386 h 14.5 a 0.50005,0.50005 0 0 0 0.4805,-0.6386 l -1,-3.5 a 0.50005,0.50005 0 0 0 -0.4805,-0.3614 h -4 v -1.5 h 7 c 0.6839,0 1.25,-0.5661 1.25,-1.25 v -11.5 c 0,-0.6838 -0.5661,-1.25 -1.25,-1.25 z" color="#000" font-family="sans-serif" font-weight="400" overflow="visible" transform="translate(0 1020.362)" white-space="normal" style="line-height:normal;font-variant-ligatures:normal;font-variant-position:normal;font-variant-caps:normal;font-variant-numeric:normal;font-variant-alternates:normal;font-feature-settings:normal;text-indent:0;text-align:start;text-decoration-line:none;text-decoration-style:solid;text-decoration-color:#000;text-transform:none;text-orientation:mixed;shape-padding:0;isolation:auto;mix-blend-mode:normal"/><path fill="#e6f4f6" d="m -5049.5762,-1961.8145 h 18 c 0.1472,0 0.25,0.1029 0.25,0.25 v 11.5 c 0,0.1472 -0.1028,0.25 -0.25,0.25 h -18 c -0.1471,0 -0.25,-0.1028 -0.25,-0.25 v -11.5 c 0,-0.1471 0.1029,-0.25 0.25,-0.25 z" color="#000" font-family="sans-serif" font-weight="400" overflow="visible" transform="translate(0 1020.362)" white-space="normal" style="line-height:normal;font-variant-ligatures:normal;font-variant-position:normal;font-variant-caps:normal;font-variant-numeric:normal;font-variant-alternates:normal;font-feature-settings:normal;text-indent:0;text-align:start;text-decoration-line:none;text-decoration-style:solid;text-decoration-color:#000;text-transform:none;text-orientation:mixed;shape-padding:0;isolation:auto;mix-blend-mode:normal"/><path fill="#b4c9d5" d="m -5042.0762,-1948.8145 h 2.5 v 2.5 h -2.5 z" color="#000" font-family="sans-serif" font-weight="400" overflow="visible" transform="translate(0 1020.362)" white-space="normal" style="line-height:normal;font-variant-ligatures:normal;font-variant-position:normal;font-variant-caps:normal;font-variant-numeric:normal;font-variant-alternates:normal;font-feature-settings:normal;text-indent:0;text-align:start;text-decoration-line:none;text-decoration-style:solid;text-decoration-color:#000;text-transform:none;text-orientation:mixed;shape-padding:0;isolation:auto;mix-blend-mode:normal"/><path fill="#91a6b8" d="m -5046.6992,-1946.3145 h 3.623 v 0.5 a 0.50004997,0.50004997 0 0 0 0.5,0.5 h 3.5 a 0.50004997,0.50004997 0 0 0 0.5,-0.5 v -0.5 h 3.6231 l 0.7148,2.5 h -13.1758 z" color="#000" font-family="sans-serif" font-weight="400" overflow="visible" transform="translate(0 1020.362)" white-space="normal" style="line-height:normal;font-variant-ligatures:normal;font-variant-position:normal;font-variant-caps:normal;font-variant-numeric:normal;font-variant-alternates:normal;font-feature-settings:normal;text-indent:0;text-align:start;text-decoration-line:none;text-decoration-style:solid;text-decoration-color:#000;text-transform:none;text-orientation:mixed;shape-padding:0;isolation:auto;mix-blend-mode:normal"/><path fill="#d7edf2" d="m -5028.3255,-943.204 c 0,-0.4155 0.3345,-0.75 0.75,-0.75 h 7.5 c 0.4155,0 0.75,0.3345 0.75,0.75 v 19.5 c 0,0.4155 -0.3345,0.75 -0.75,0.75 h -7.5 c -0.4155,0 -0.75,-0.3345 -0.75,-0.75 0,-6.5 0,-13 0,-19.5 z"/><path fill="#586597" d="m -5027.5762,-944.45312 c -0.6838,0 -1.25,0.56614 -1.25,1.25 v 5.75 h 1 v -5.75 c 0,-0.14715 0.1029,-0.25001 0.25,-0.25 h 7.5 c 0.1472,0 0.25,0.10285 0.25,0.25 v 19.5 c 0,0.14714 -0.1028,0.25 -0.25,0.25 h -7.5 c -0.1471,0 -0.25,-0.10286 -0.25,-0.25 v -10.75 h -1 v 10.75 c 0,0.68385 0.5662,1.25 1.25,1.25 h 7.5 c 0.6839,0 1.25,-0.56615 1.25,-1.25 v -19.5 c 0,-0.68386 -0.5661,-1.25001 -1.25,-1.25 z" color="#000" font-family="sans-serif" font-weight="400" overflow="visible" white-space="normal" style="line-height:normal;font-variant-ligatures:normal;font-variant-position:normal;font-variant-caps:normal;font-variant-numeric:normal;font-variant-alternates:normal;font-feature-settings:normal;text-indent:0;text-align:start;text-decoration-line:none;text-decoration-style:solid;text-decoration-color:#000;text-transform:none;text-orientation:mixed;shape-padding:0;isolation:auto;mix-blend-mode:normal"/><path fill="#586597" d="M-5026.8262-933.95312v1h6v-1zM-5023.8262-931.95312c-.9605 0-1.75.78942-1.75 1.75 0 .96057.7895 1.75 1.75 1.75.9606 0 1.75-.78943 1.75-1.75 0-.96058-.7894-1.75001-1.75-1.75z" color="#000" font-family="sans-serif" font-weight="400" overflow="visible" white-space="normal" style="line-height:normal;font-variant-ligatures:normal;font-variant-position:normal;font-variant-caps:normal;font-variant-numeric:normal;font-variant-alternates:normal;font-feature-settings:normal;text-indent:0;text-align:start;text-decoration-line:none;text-decoration-style:solid;text-decoration-color:#000;text-transform:none;text-orientation:mixed;shape-padding:0;isolation:auto;mix-blend-mode:normal"/><path fill="#eef396" d="m -5023.8262,-930.95312 c 0.4202,0 0.75,0.32986 0.75,0.75 0,0.42013 -0.3298,0.75 -0.75,0.75 -0.4201,0 -0.75,-0.32987 -0.75,-0.75 0,-0.42014 0.3299,-0.75 0.75,-0.75 z" color="#000" font-family="sans-serif" font-weight="400" overflow="visible" white-space="normal" style="line-height:normal;font-variant-ligatures:normal;font-variant-position:normal;font-variant-caps:normal;font-variant-numeric:normal;font-variant-alternates:normal;font-feature-settings:normal;text-indent:0;text-align:start;text-decoration-line:none;text-decoration-style:solid;text-decoration-color:#000;text-transform:none;text-orientation:mixed;shape-padding:0;isolation:auto;mix-blend-mode:normal"/><path fill="#91a6b8" d="m -5023.3255,-926.954 c 0,0.2761 -0.2239,0.5 -0.5,0.5 -0.2761,0 -0.5,-0.2239 -0.5,-0.5 0,-0.2761 0.2239,-0.5 0.5,-0.5 0.2761,0 0.5,0.2239 0.5,0.5 z"/><path fill="#91a6b8" d="M-5026.3262-942.45312v1h5v-1zM-5026.3262-940.45312v1h5v-1zM-5026.3262-938.45312v1h5v-1zM-5026.3262-936.45312v1h5v-1z" color="#000" font-family="sans-serif" font-weight="400" overflow="visible" white-space="normal" style="line-height:normal;font-variant-ligatures:normal;font-variant-position:normal;font-variant-caps:normal;font-variant-numeric:normal;font-variant-alternates:normal;font-feature-settings:normal;text-indent:0;text-align:start;text-decoration-line:none;text-decoration-style:solid;text-decoration-color:#000;text-transform:none;text-orientation:mixed;shape-padding:0;isolation:auto;mix-blend-mode:normal"/><path fill="#91a6b8" d="m -5023.3255,-924.954 c 0,0.2761 -0.2239,0.5 -0.5,0.5 -0.2761,0 -0.5,-0.2239 -0.5,-0.5 0,-0.2761 0.2239,-0.5 0.5,-0.5 0.2761,0 0.5,0.2239 0.5,0.5 z"/><path fill="#586597" d="m -5028.8262,-936.45312 v 1 h 1 v -1 z" color="#000" font-family="sans-serif" font-weight="400" overflow="visible" white-space="normal" style="line-height:normal;font-variant-ligatures:normal;font-variant-position:normal;font-variant-caps:normal;font-variant-numeric:normal;font-variant-alternates:normal;font-feature-settings:normal;text-indent:0;text-align:start;text-decoration-line:none;text-decoration-style:solid;text-decoration-color:#000;text-transform:none;text-orientation:mixed;shape-padding:0;isolation:auto;mix-blend-mode:normal"/><path fill="#91a6b8" d="M-5033.3262-931.45312v1h1v-1zM-5033.3262-940.45312v8h1v-8z" color="#000" font-family="sans-serif" font-weight="400" overflow="visible" white-space="normal" style="line-height:normal;font-variant-ligatures:normal;font-variant-position:normal;font-variant-caps:normal;font-variant-numeric:normal;font-variant-alternates:normal;font-feature-settings:normal;text-indent:0;text-align:start;text-decoration-line:none;text-decoration-style:solid;text-decoration-color:#000;text-transform:none;text-orientation:mixed;shape-padding:0;isolation:auto;mix-blend-mode:normal"/></g></svg>