<svg xmlns="http://www.w3.org/2000/svg" data-name="Layer 1" viewBox="0 0 64 64"><circle cx="32" cy="32" r="27" fill="#e6e7e8"/><path fill="#f26522" d="M40.4,57.66a27,27,0,0,1-29.3-8.58,8.68,8.68,0,0,1,5.83-2.24H30.68A8.69,8.69,0,0,1,39,53Z"/><path fill="#ffd2b4" d="M27.62,43v5.22a.9.9,0,0,1-.5.81L24.2,50.45a.9.9,0,0,1-.81,0L20.48,49a.9.9,0,0,1-.5-.81V43a.9.9,0,0,1,.9-.9h5.83A.9.9,0,0,1,27.62,43Z"/><path fill="#fff" d="M27.62,46.84v1.35a.9.9,0,0,1-.5.8L24.2,50.46a.89.89,0,0,1-.8,0L20.48,49a.9.9,0,0,1-.5-.8V46.84H18.08v1.35a2.78,2.78,0,0,0,1.55,2.51l2.91,1.46a2.83,2.83,0,0,0,2.52,0L28,50.7a2.78,2.78,0,0,0,1.55-2.51V46.84Z" opacity=".1"/><path fill="#ffd2b4" d="M23.8,19.38c10.92,0,10,10.29,10,10.29,1.6-.17,2.86.47,2.86,2.73s-1,2.72-2.24,2.85a.27.27,0,0,0-.26.26c-.37,3.52-2.86,6.1-5.32,7.82a8.74,8.74,0,0,1-10.07,0c-2.45-1.73-4.95-4.31-5.32-7.82a.27.27,0,0,0-.26-.26c-1.25-.13-2.24-.6-2.24-2.85s1.21-2.9,2.81-2.73C13.76,29.67,12.87,19.38,23.8,19.38Z"/><path fill="#262234" d="M27.62,44.06v1.43a8.73,8.73,0,0,1-7.63,0V44.06a8.73,8.73,0,0,0,7.63,0Z" opacity=".1"/><circle cx="20.03" cy="31.72" r="1.62" fill="#262234"/><circle cx="27.58" cy="31.72" r="1.62" fill="#262234"/><path fill="#2a292a" d="M34.77,24.14a10,10,0,0,0-.42-2.33,10.44,10.44,0,0,0,.17-3.92.71.71,0,0,0-.94-.52c-.23.09-.47.16-.72.24a4.47,4.47,0,0,0,0-1.08.73.73,0,0,0-1-.57,29.42,29.42,0,0,1-7.64,1.35H23.8c-5.81,0-10.53.29-11,6.83A28.85,28.85,0,0,0,13,29.41a20.54,20.54,0,0,0,.3,2.61c.17.69,2,.66,2.08,0s-.32-4,1.31-7a19.56,19.56,0,0,0,7.14,1.16A19.58,19.58,0,0,0,30.93,25c1.63,3.07,1.22,6.51,1.31,7s1.92.64,2.08,0a18.27,18.27,0,0,0,.27-2.33A29.34,29.34,0,0,0,34.77,24.14Z"/><path fill="#691c24" d="M27.49,35.9a1,1,0,0,1,.93,1.19,4.77,4.77,0,0,1-9.24,0,1,1,0,0,1,.93-1.19Z"/><path fill="#be1e2d" d="M26.11,40.07a4.8,4.8,0,0,1-4.62,0c.19-1.17,1.15-1.5,2.31-1.5S25.92,38.9,26.11,40.07Z"/><path fill="#fff" d="M26.54,35.9v.91a.35.35,0,0,1-.34.35H21.41a.35.35,0,0,1-.34-.35V35.9Z"/><path fill="#007ed4" d="M57.68,23.19H42.61a3.2,3.2,0,0,0-3.19,3.19v7.3a3.2,3.2,0,0,0,3.06,3.18l-.85,3.8a1,1,0,0,0,1.58,1l6.22-4.79h8.26a3.2,3.2,0,0,0,3.19-3.19v-7.3A3.2,3.2,0,0,0,57.68,23.19Z"/><circle cx="44.5" cy="30.03" r="1.75" fill="#0060c4"/><circle cx="50.15" cy="30.03" r="1.75" fill="#0060c4"/><circle cx="55.79" cy="30.03" r="1.75" fill="#0060c4"/></svg>