<svg xmlns="http://www.w3.org/2000/svg" data-name="Layer 1" viewBox="0 0 512 512"><g data-name="&lt;Group&gt;"><g data-name="&lt;Group&gt;"><path fill="#f7caa5" d="M295.02,356.29l20.22.29a47.856,47.856,0,0,1,44.58,32.32l77.55-37.89a36.1,36.1,0,0,1,47.87,13.84L327.97,469.53a109.132,109.132,0,0,1-67.96,8.6l-109.8-29.28a40.538,40.538,0,0,0-30.01,3.68L97.49,465.08,99.1,353.46l.91.01a107.059,107.059,0,0,1,111.13-9.23l6.59,3.3c.01,0,.01.01.02.01a76.572,76.572,0,0,0,33.16,8.1Z" data-name="&lt;Group&gt;"/><path fill="#00efd1" d="M350.49,122.59a92.88,92.88,0,0,1-55.19,86.35l-.28,147.35-44.11-.64a76.572,76.572,0,0,1-33.16-8.1V207.93c-32.85-14.57-55.54-47.41-55.54-86.69.34-40.98,26.08-76.87,62.99-89.4l1.02,54.47,29.77,35.26,31.86-35.26-.34-53.12C323.74,46.4,350.49,81.28,350.49,122.59Z" data-name="&lt;Group&gt;"/><polygon fill="#00acea" points="97.49 465.08 97.31 477.65 26.76 476.63 29 321.83 99.54 322.84 99.1 353.46 97.49 465.08" data-name="&lt;Group&gt;"/></g><g data-name="&lt;Group&gt;"><path fill="#083863" d="M433.77,343.865l-69.984,34.194a56.017,56.017,0,0,0-48.432-29.478l-12.317-.178L303.29,214a101.337,101.337,0,0,0,55.2-91.408c0-43.087-27.424-82.034-68.24-96.916a8,8,0,0,0-10.74,7.567l.32,50.012-23.636,26.158L234.165,83.32,233.2,31.69a8,8,0,0,0-10.57-7.425c-40.557,13.768-68.052,52.713-68.419,96.975a103.815,103.815,0,0,0,16.883,56.992A99.218,99.218,0,0,0,210,212.984V334.755c-34-14.766-71.129-12.939-102.572,4.581l.174-16.381a7.91,7.91,0,0,0-7.932-8.03L29.114,314H29a7.928,7.928,0,0,0-8,7.8l-2.24,154.758a7.943,7.943,0,0,0,2.26,5.668,8.175,8.175,0,0,0,5.624,2.59L97.194,486h.116a8.311,8.311,0,0,0,8-8.148l.114-7.972,18.642-10.324a32.379,32.379,0,0,1,24.083-2.965l109.8,29.274c.174.046.349.084.525.119a116.227,116.227,0,0,0,22.335,2.152,117.892,117.892,0,0,0,50.606-11.385,7.877,7.877,0,0,0,.988-.561L489.673,371.51a8,8,0,0,0,2.479-10.687A44.035,44.035,0,0,0,433.77,343.865ZM170.21,121.307c.277-33.48,18.846-63.362,47.212-77.567l.8,42.72a8.007,8.007,0,0,0,1.886,5.011l29.771,35.26a8,8,0,0,0,12.048.2l31.859-35.26a8,8,0,0,0,2.065-5.414L295.589,45.5a87.572,87.572,0,0,1,46.9,77.162,85.3,85.3,0,0,1-50.432,78.966,8,8,0,0,0-4.758,7.3l-.265,139.247-35.882-.521A68.4,68.4,0,0,1,226,342.392V207.93a8.117,8.117,0,0,0-4.882-7.313C189.794,186.724,170.21,156.308,170.21,121.307ZM89.491,464.965l-.065,4.57-54.551-.788,2.009-138.8,54.542.781-1.935,134.24Zm234.53-2.417a101.809,101.809,0,0,1-62.214,7.782L152.269,441.12a48.3,48.3,0,0,0-35.938,4.408l-10.643,5.881,1.341-93.1a98.661,98.661,0,0,1,100.53-6.916l6.59,3.3.008,0,.022.01a85.05,85.05,0,0,0,36.615,8.941l64.331.93A39.945,39.945,0,0,1,352.253,391.5a41.957,41.957,0,0,1,1.445,5.692L256.756,396h-.118a7.815,7.815,0,1,0-.115,15.627L362.264,413h.116a7.914,7.914,0,0,0,8-7.812,56.029,56.029,0,0,0-1.118-12.009l71.621-34.988c.062-.03.125-.058.186-.091a28.058,28.058,0,0,1,32.631,4.82Z" data-name="&lt;Compound Path&gt;"/></g></g></svg>