<svg xmlns="http://www.w3.org/2000/svg" width="32" height="32" viewBox="0 0 32 32"><g transform="translate(1010 -46.357)"><path fill="#f05542" style="line-height:normal;text-indent:0;text-align:start;text-decoration-line:none;text-decoration-style:solid;text-decoration-color:#000;text-transform:none;block-progression:tb;isolation:auto;mix-blend-mode:normal" d="m -994,57.355469 c -3.86016,0 -7,3.141628 -7,7.001953 0,3.860426 3.13987,7 7,7 3.86013,0 7,-3.139574 7,-7 0,-3.860325 -3.13984,-7.001953 -7,-7.001953 z m -0.5,1.101562 0,2.148438 -4.07812,0 c 0.99523,-1.21558 2.41851,-2.004781 4.07812,-2.148438 z m 1,0 c 1.65961,0.143657 3.08289,0.932858 4.07812,2.148438 l -4.07812,0 0,-2.148438 z m -5.75195,3.148438 4.75195,0 0,2.251953 -5.40039,0 c 0.0703,-0.813458 0.28728,-1.564617 0.64844,-2.251953 z m 5.75195,0 4.75195,0 c 0.36116,0.687336 0.57815,1.438495 0.64844,2.251953 l -5.40039,0 0,-2.251953 z m -6.39844,3.251953 5.39844,0 0,2.25 -4.75195,0 c -0.36104,-0.687098 -0.57612,-1.436823 -0.64649,-2.25 z m 6.39844,0 5.39844,0 c -0.0704,0.813177 -0.28545,1.562902 -0.64649,2.25 l -4.75195,0 0,-2.25 z m -5.07812,3.25 4.07812,0 0,2.148437 c -1.65962,-0.143644 -3.0829,-0.932898 -4.07812,-2.148437 z m 5.07812,0 4.07812,0 c -0.99522,1.215539 -2.4185,2.004793 -4.07812,2.148437 l 0,-2.148437 z" color="#000" font-family="sans-serif" font-weight="400" overflow="visible" white-space="normal"/><path fill="#f05542" fill-rule="evenodd" style="line-height:normal;text-indent:0;text-align:start;text-decoration-line:none;text-decoration-style:solid;text-decoration-color:#000;text-transform:none;block-progression:tb;isolation:auto;mix-blend-mode:normal" d="M-996.69922 58.117188c-1.68438 4.147907-1.96496 8.122117-.12695 12.43164l.91992-.390625c-1.73859-4.076417-1.48421-7.682029.13281-11.664062l-.92578-.376953zM-991.34961 58.117188l-.92578.376953c1.61712 3.982029 1.8714 7.587645.13281 11.664062l.91992.390625c1.83801-4.309523 1.55753-8.28373-.12695-12.43164z" color="#000" font-family="sans-serif" font-weight="400" overflow="visible" white-space="normal"/><path fill="#2b4255" style="line-height:normal;text-indent:0;text-align:start;text-decoration-line:none;text-decoration-style:solid;text-decoration-color:#000;text-transform:none;block-progression:tb;isolation:auto;mix-blend-mode:normal" d="m -1007.5,48.357422 a 0.50005,0.50005 0 0 0 -0.5,0.5 l 0,27 a 0.50005,0.50005 0 0 0 0.5,0.5 l 27,0 a 0.50005,0.50005 0 0 0 0.5,-0.5 l 0,-20.53125 0,-6.46875 a 0.50005,0.50005 0 0 0 -0.5,-0.5 l -27,0 z m 0.5,1 26,0 0,5.96875 0,20.03125 -26,0 0,-26 z" color="#000" font-family="sans-serif" font-weight="400" overflow="visible" white-space="normal"/><path fill="#2b4255" fill-rule="evenodd" style="line-height:normal;text-indent:0;text-align:start;text-decoration-line:none;text-decoration-style:solid;text-decoration-color:#000;text-transform:none;block-progression:tb;isolation:auto;mix-blend-mode:normal" d="m -1007.5,52.357422 0,1 27,0 0,-1 -27,0 z" color="#000" font-family="sans-serif" font-weight="400" overflow="visible" white-space="normal"/><path fill="#f05542" style="isolation:auto;mix-blend-mode:normal" d="M-1004.9999 50.856682a.49999636.49999636 0 0 1-.5.499996.49999636.49999636 0 0 1-.5-.499996.49999636.49999636 0 0 1 .5-.499997.49999636.49999636 0 0 1 .5.499997zM-1002.9999 50.85656a.49999762.49999762 0 0 1-.5.499997.49999762.49999762 0 0 1-.5-.499997.49999762.49999762 0 0 1 .5-.499998.49999762.49999762 0 0 1 .5.499998zM-1000.9998 50.85656a.50002968.50002968 0 0 1-.5001.500029.50002968.50002968 0 0 1-.5-.500029.50002968.50002968 0 0 1 .5-.50003.50002968.50002968 0 0 1 .5001.50003z" color="#000" overflow="visible"/></g></svg>